<mxfile host="app.diagrams.net" modified="2022-10-20T04:53:16.893Z" agent="5.0 (Macintosh; Intel Mac OS X 10_15_7) AppleWebKit/537.36 (KHTML, like Gecko) Chrome/106.0.0.0 Safari/537.36" etag="5RqE3t8DzM6BZDXMO_pj" version="20.4.2" type="github">
  <diagram id="jk84KoCiqGRbvonOO5nR" name="Page-1">
    <mxGraphModel dx="1116" dy="1629" grid="0" gridSize="10" guides="1" tooltips="1" connect="1" arrows="1" fold="1" page="1" pageScale="1" pageWidth="900" pageHeight="420" background="#EFF1F3" math="0" shadow="0">
      <root>
        <mxCell id="0" />
        <mxCell id="1" parent="0" />
        <mxCell id="zTJxkPbpqFRP1l9krlKQ-4" value="" style="shape=image;verticalLabelPosition=bottom;verticalAlign=top;imageAspect=0;aspect=fixed;image=data:image/svg+xml,PHN2ZyB4bWxuczp4bGluaz0iaHR0cDovL3d3dy53My5vcmcvMTk5OS94bGluayIgeG1sbnM9Imh0dHA6Ly93d3cudzMub3JnLzIwMDAvc3ZnIiBoZWlnaHQ9IjIwMCIgd2lkdGg9IjIwMCIgdmVyc2lvbj0iMS4xIiB2aWV3Qm94PSIwIDAgMTAyNCAxMDI0IiBjbGFzcz0iaWNvbiI+PHBhdGggZmlsbD0iI0NERDNFMCIgZD0iTTk2MS42NDgyNDQgNzIuMDAxNzE5SDYyLjM1Mzc1NkMzOS4wNTk4NDcgNzIuMDAxNzE5IDE5Ljk5OTkyMiA5MS4wNTk2NDQgMTkuOTk5OTIyIDExNC4zNTM1NTN2MzcuNjUxODUzaDk4NC4wMDAxNTZWMTE0LjM1MzU1M2MwLTIzLjI5MzkwOS0xOS4wNTc5MjYtNDIuMzUxODM1LTQyLjM1MTgzNC00Mi4zNTE4MzR6Ii8+PHBhdGggZmlsbD0iIzk5RUJGQiIgZD0iTTEwMDQuMDAwMDc4IDE1Mi4wMDU0MDZIMTkuOTk5OTIydjU1OS45ODk4MTNoMTMwLjAwMzQ5MlYzNTIuMDA4NjI1YzAtMjEuOTgzOTE0IDE4LjAxNTkzLTM5Ljk5OTg0NCAzOS45OTk4NDQtMzkuOTk5ODQ0aDY0My45OTE0ODRjMjEuOTgzOTE0IDAgMzkuOTk5ODQ0IDE3Ljk5OTkzIDM5Ljk5OTg0NCAzOS45OTk4NDR2MzU5Ljk4NjU5NGgxMzAuMDA1NDkyVjE1Mi4wMDU0MDZ6Ii8+PHBhdGggZmlsbD0iIzg0ODFFMiIgZD0iTTU3My43MTc3NTkgNTYzLjcxOTc5OGwtOTEuNzE3NjQyIDkxLjcxNzY0Mi0zMS43MTc4NzYtMzEuNzE3ODc2Yy0xNS42MTc5MzktMTUuNjE3OTM5LTQwLjk0Mzg0LTE1LjYxNzkzOS01Ni41NjE3NzkgMC0xNS42MTk5MzkgMTUuNjE3OTM5LTE1LjYxOTkzOSA0MC45NDM4NCAwIDU2LjU2MTc3OWw1OS45OTk3NjYgNTkuOTk5NzY1YzE1LjYxNzkzOSAxNS42MTk5MzkgNDAuOTQzODQgMTUuNjE5OTM5IDU2LjU2MTc3OSAwbDExOS45OTk1MzEtMTE5Ljk5OTUzMWMxNS42MTc5MzktMTUuNjE3OTM5IDE1LjYxNzkzOS00MC45NDM4NCAwLTU2LjU2MTc3OS0xNS42MTk5MzktMTUuNjE3OTM5LTQwLjk0Mzg0LTE1LjYxNzkzOS01Ni41NjM3NzkgMHoiLz48cGF0aCBmaWxsPSIjQ0REM0UwIiBkPSJNMTUwLjAwMzQxNCA3OTEuOTk4OTA2di04MC4wMDM2ODdIMTkuOTk5OTIydjM3LjY1MTg1M2MwIDIzLjI5MzkwOSAxOS4wNTc5MjYgNDIuMzUxODM1IDQyLjM1MTgzNCA0Mi4zNTE4MzRoODcuNjUxNjU4ek04NzMuOTk0NTg2IDcxMS45OTUyMTl2ODAuMDAzNjg3aDg3LjY1MTY1OGMyMy4yOTM5MDkgMCA0Mi4zNTE4MzUtMTkuMDU3OTI2IDQyLjM1MTgzNC00Mi4zNTE4MzR2LTM3LjY1MTg1M2gtMTMwLjAwMzQ5MnoiLz48cGF0aCBmaWxsPSIjODY5MEFGIiBkPSJNNjEyLjAwMTYwOSA5NTEuOTk4MjgxTDYwMS45OTk2NDggODcxLjk5NjU5NGgtMTc5Ljk5OTI5Nkw0MTEuOTk4MzkxIDk1MS45OTgyODF6Ii8+PHBhdGggZmlsbD0iI0ZCRjdGNiIgZD0iTTg3My45OTQ1ODYgMzkyLjAwODQ2OUg0NzAuMDAyMTY0YzAgNDMuOTk5ODI4LTM2LjAwNTg1OSA3OS45OTk2ODgtNzkuOTk5Njg3IDc5Ljk5OTY4N2gtMjM5Ljk5OTA2M1Y4MzEuOTk2NzVjMCAyMS45ODM5MTQgMTcuOTk5OTMgMzkuOTk5ODQ0IDM5Ljk5OTg0NCAzOS45OTk4NDRoNjQzLjk5MTQ4NGMyMS45OTk5MTQgMCAzOS45OTk4NDQtMTcuOTk5OTMgMzkuOTk5ODQ0LTM5Ljk5OTg0NFYzOTIuMDA4NDY5eiIvPjxwYXRoIGZpbGw9IiNGRkMyMzQiIGQ9Ik00NzAuMDAyMTY0IDM5Mi4wMDg0NjloNDAzLjk5MjQyMnYtMzkuOTk5ODQ0YzAtMjEuOTk5OTE0LTE4LjAxNzkzLTM5Ljk5OTg0NC0zOS45OTk4NDQtMzkuOTk5ODQ0SDE5MC4wMDMyNThjLTIxLjk4MTkxNCAwLTM5Ljk5OTg0NCAxOC4wMTc5My0zOS45OTk4NDQgMzkuOTk5ODQ0djExOS45OTk1MzFoMjM5Ljk5OTA2M2M0My45OTU4MjggMCA3OS45OTk2ODgtMzUuOTk5ODU5IDc5Ljk5OTY4Ny03OS45OTk2ODd6Ii8+PHBhdGggZmlsbD0iIzQ1RTA4QyIgZD0iTTU3My43MTc3NTkgNTYzLjcxOTc5OGwtOTEuNzE3NjQyIDkxLjcxNzY0Mi0zMS43MTc4NzYtMzEuNzE3ODc2Yy0xNS42MTc5MzktMTUuNjE3OTM5LTQwLjk0Mzg0LTE1LjYxNzkzOS01Ni41NjE3NzkgMC0xNS42MTk5MzkgMTUuNjE3OTM5LTE1LjYxOTkzOSA0MC45NDM4NCAwIDU2LjU2MTc3OWw1OS45OTk3NjYgNTkuOTk5NzY1YzE1LjYxNzkzOSAxNS42MTk5MzkgNDAuOTQzODQgMTUuNjE5OTM5IDU2LjU2MTc3OSAwbDExOS45OTk1MzEtMTE5Ljk5OTUzMWMxNS42MTc5MzktMTUuNjE3OTM5IDE1LjYxNzkzOS00MC45NDM4NCAwLTU2LjU2MTc3OS0xNS42MTk5MzktMTUuNjE3OTM5LTQwLjk0Mzg0LTE1LjYxNzkzOS01Ni41NjM3NzkgMHoiLz48cGF0aCBkPSJNOTYxLjY0NjI0NCA1Mi4wMDE3OTdINjIuMzUzNzU2QzI3Ljk2OTg5MSA1Mi4wMDE3OTcgMCA3OS45NzM2ODggMCAxMTQuMzUzNTUzdjYzNS4yOTE1MTlDMCA3ODQuMDI0OTM3IDI3Ljk2OTg5MSA4MTEuOTk2ODI4IDYyLjM1Mzc1NiA4MTEuOTk2ODI4aDY3LjY0OTczNnYxOS45OTU5MjJjMCAzMy4wODM4NzEgMjYuOTE1ODk1IDU5Ljk5OTc2NiA1OS45OTk3NjYgNTkuOTk5NzY2aDIwOS4zNDExODJMMzk0LjM0MjQ2IDkzMS45OTYzNTloLTYyLjM0NTc1N2MtMTEuMDQ1OTU3IDAtMTkuOTk5OTIyIDguOTUzOTY1LTE5Ljk5OTkyMiAxOS45OTk5MjJzOC45NTM5NjUgMTkuOTk5OTIyIDE5Ljk5OTkyMiAxOS45OTk5MjJoMzYwLjAwNjU5NGMxMS4wNDM5NTcgMCAxOS45OTk5MjItOC45NTM5NjUgMTkuOTk5OTIyLTE5Ljk5OTkyMnMtOC45NTU5NjUtMTkuOTk5OTIyLTE5Ljk5OTkyMi0xOS45OTk5MjJINjI5LjY1NzU0bC01LjAwMTk4LTQwLjAwMzg0M2gyMDkuMzM5MTgyYzMzLjA4Mzg3MSAwIDU5Ljk5OTc2Ni0yNi45MTU4OTUgNTkuOTk5NzY2LTU5Ljk5OTc2NlY4MTEuOTk2ODI4aDY3LjY1MTczNmMzNC4zODE4NjYgMCA2Mi4zNTM3NTYtMjcuOTcxODkxIDYyLjM1Mzc1Ni02Mi4zNTE3NTZWMTE0LjM1MzU1M2MwLTM0LjM3OTg2Ni0yNy45Njk4OTEtNjIuMzUxNzU2LTYyLjM1Mzc1Ni02Mi4zNTE3NTZ6IG0tODk5LjI5MjQ4OCAzOS45OTk4NDRoODk5LjI5MjQ4OGMxMi4zMjU5NTIgMCAyMi4zNTM5MTMgMTAuMDI3OTYxIDIyLjM1MzkxMiAyMi4zNTE5MTJ2MTcuNjUxOTMxSDI0MC4wMTMwNjJjLTExLjA0Mzk1NyAwLTE5Ljk5OTkyMiA4Ljk1Mzk2NS0xOS45OTk5MjEgMTkuOTk5OTIyczguOTU1OTY1IDE5Ljk5OTkyMiAxOS45OTk5MjEgMTkuOTk5OTIyaDc0My45ODcwOTR2NTE5Ljk4OTk2OWgtOTAuMDA1NjQ4VjM1Mi4wMDg2MjVjMC0zMy4wODM4NzEtMjYuOTE1ODk1LTU5Ljk5Nzc2Ni01OS45OTk3NjYtNTkuOTk3NzY2SDE5MC4wMDMyNThjLTMzLjA4Mzg3MSAwLTU5Ljk5OTc2NiAyNi45MTU4OTUtNTkuOTk5NzY2IDU5Ljk5Nzc2NnYzMzkuOTg2NjcySDM5Ljk5OTg0NFYxNzIuMDA1MzI4aDIwLjAxMzkyMmMxMS4wNDM5NTcgMCAxOS45OTk5MjItOC45NTM5NjUgMTkuOTk5OTIxLTE5Ljk5OTkyMnMtOC45NTU5NjUtMTkuOTk5OTIyLTE5Ljk5OTkyMS0xOS45OTk5MjJIMzkuOTk5ODQ0di0xNy42NTE5MzFjMC0xMi4zMjM5NTIgMTAuMDI3OTYxLTIyLjM1MTkxMyAyMi4zNTM5MTItMjIuMzUxOTEyeiBtNzkxLjY0MDkwOCAyODAuMDA2OTA2SDQ3MC4wMDIxNjRjLTExLjA0Mzk1NyAwLTE5Ljk5OTkyMiA4Ljk1Mzk2NS0xOS45OTk5MjIgMTkuOTk5OTIyIDAgMzMuMDgzODcxLTI2LjkxNTg5NSA1OS45OTc3NjYtNTkuOTk3NzY1IDU5Ljk5Nzc2NUgxNzAuMDAzMzM2di05OS45OTk2MDljMC0xMS4wMjc5NTcgOC45NzE5NjUtMTkuOTk3OTIyIDE5Ljk5OTkyMi0xOS45OTc5MjJoNjQzLjk5MTQ4NGMxMS4wMjc5NTcgMCAxOS45OTk5MjIgOC45NzE5NjUgMTkuOTk5OTIyIDE5Ljk5NzkyMnYyMC4wMDE5MjJ6TTYyLjM1Mzc1NiA3NzEuOTk4OTg0Yy0xMi4zMjU5NTIgMC0yMi4zNTM5MTMtMTAuMDI3OTYxLTIyLjM1MzkxMi0yMi4zNTE5MTJ2LTE3LjY1MTkzMWg5MC4wMDM2NDh2NDAuMDAzODQzSDYyLjM1Mzc1NnogbTUyNi45OTE5NDIgMTU5Ljk5OTM3NWgtMTU0LjY5MTM5Nmw1LjAwMTk4MS00MC4wMDM4NDNoMTQ0LjY4OTQzNGw0Ljk5OTk4MSA0MC4wMDM4NDN6IG0yNjQuNjQ4OTY2LTEwMC4wMDM2MDljMCAxMS4wMjc5NTctOC45NzE5NjUgMTkuOTk5OTIyLTE5Ljk5OTkyMiAxOS45OTk5MjJIMTkwLjAwMzI1OGMtMTEuMDI3OTU3IDAtMTkuOTk5OTIyLTguOTcxOTY1LTE5Ljk5OTkyMi0xOS45OTk5MjJWNDkyLjAwODA3OGgyMjAuMDAxMTQxYzQ4LjI4OTgxMSAwIDg4LjY5NzY1NC0zNC40MTE4NjYgOTcuOTg3NjE3LTc5Ljk5NzY4N2gzNjYuMDAyNTd2NDE5Ljk4NDM1OXogbTEwNy42NTE1OC01OS45OTU3NjZoLTY3LjY1MTczNnYtNDAuMDAzODQzaDkwLjAwNTY0OHYxNy42NTE5MzFjMCAxMi4zMjM5NTItMTAuMDI3OTYxIDIyLjM1MTkxMy0yMi4zNTM5MTIgMjIuMzUxOTEyeiIvPjxwYXRoIGQ9Ik0zMTAuMDEwNzg5IDM3Mi4wMDg1NDdoLTAuMDE2Yy0xMS4wNDM5NTcgMC0xOS45OTE5MjIgOC45NTM5NjUtMTkuOTkxOTIyIDE5Ljk5OTkyMnM4Ljk2MTk2NSAxOS45OTk5MjIgMjAuMDA3OTIyIDE5Ljk5OTkyMmMxMS4wNDM5NTcgMCAxOS45OTk5MjItOC45NTM5NjUgMTkuOTk5OTIyLTE5Ljk5OTkyMnMtOC45NTU5NjUtMTkuOTk5OTIyLTE5Ljk5OTkyMi0xOS45OTk5MjJ6TTM5MC4wMTI0NzcgMzcyLjAwODU0N0gzODkuOTk4NDc3Yy0xMS4wNDM5NTcgMC0xOS45OTM5MjIgOC45NTM5NjUtMTkuOTkzOTIyIDE5Ljk5OTkyMnM4Ljk2MTk2NSAxOS45OTk5MjIgMjAuMDA3OTIyIDE5Ljk5OTkyMmMxMS4wNDM5NTcgMCAxOS45OTk5MjItOC45NTM5NjUgMTkuOTk5OTIxLTE5Ljk5OTkyMnMtOC45NTU5NjUtMTkuOTk5OTIyLTE5Ljk5OTkyMS0xOS45OTk5MjJ6TTIzMC4wMDkxMDIgMzcyLjAwODU0N2gtMC4wMTZjLTExLjA0Mzk1NyAwLTE5Ljk5MTkyMiA4Ljk1Mzk2NS0xOS45OTE5MjIgMTkuOTk5OTIyczguOTYxOTY1IDE5Ljk5OTkyMiAyMC4wMDc5MjIgMTkuOTk5OTIyYzExLjA0Mzk1NyAwIDE5Ljk5OTkyMi04Ljk1Mzk2NSAxOS45OTk5MjEtMTkuOTk5OTIycy04Ljk1NTk2NS0xOS45OTk5MjItMTkuOTk5OTIxLTE5Ljk5OTkyMnpNNjAxLjk5OTY0OCA1MzIuMDA1OTIyYy0xNi4wMjU5MzcgMC0zMS4wOTE4NzkgNi4yNDE5NzYtNDIuNDIzODM0IDE3LjU3MTkzMWwtNzcuNTc1Njk3IDc3LjU3NzY5Ny0xNy41NzU5MzEtMTcuNTc3OTMxYy0xMS4zMzE5NTYtMTEuMzMxOTU2LTI2LjM5Nzg5Ny0xNy41NzE5MzEtNDIuNDIzODM0LTE3LjU3MTkzMnMtMzEuMDkxODc5IDYuMjQxOTc2LTQyLjQyMzgzNSAxNy41NzE5MzJjLTExLjMzMTk1NiAxMS4zMzE5NTYtMTcuNTcxOTMxIDI2LjM5Nzg5Ny0xNy41NzE5MzEgNDIuNDIzODM0czYuMjM5OTc2IDMxLjA5MTg3OSAxNy41NzE5MzEgNDIuNDIzODM0bDU5Ljk5OTc2NiA1OS45OTk3NjZjMTEuMzMxOTU2IDExLjMyOTk1NiAyNi4zOTc4OTcgMTcuNTcxOTMxIDQyLjQyMzgzNCAxNy41NzE5MzFzMzEuMDkxODc5LTYuMjQxOTc2IDQyLjQyMzgzNC0xNy41NzE5MzFsMTE5Ljk5OTUzMi0xMTkuOTk5NTMxYzExLjMzMTk1Ni0xMS4zMjk5NTYgMTcuNTcxOTMxLTI2LjM5Nzg5NyAxNy41NzE5MzEtNDIuNDIzODM1cy02LjIzOTk3Ni0zMS4wOTE4NzktMTcuNTcxOTMxLTQyLjQyMzgzNGMtMTEuMzMxOTU2LTExLjMzMTk1Ni0yNi4zOTc4OTctMTcuNTcxOTMxLTQyLjQyMzgzNS0xNy41NzE5MzF6IG0xNC4xMzc5NDUgNzQuMTMzNzFsLTExOS45OTk1MzEgMTE5Ljk5OTUzMmExOS44NTM5MjIgMTkuODUzOTIyIDAgMCAxLTE0LjEzNzk0NSA1Ljg1NTk3NyAxOS44NDk5MjIgMTkuODQ5OTIyIDAgMCAxLTE0LjEzNzk0NS01Ljg1NTk3N2wtNTkuOTk5NzY1LTU5Ljk5OTc2NmExOS44NTk5MjIgMTkuODU5OTIyIDAgMCAxLTUuODU3OTc3LTE0LjEzNzk0NSAxOS44NTk5MjIgMTkuODU5OTIyIDAgMCAxIDUuODU3OTc3LTE0LjEzNzk0NSAxOS44NTM5MjIgMTkuODUzOTIyIDAgMCAxIDE0LjEzNzk0NS01Ljg1NTk3NyAxOS44NTk5MjIgMTkuODU5OTIyIDAgMCAxIDE0LjEzNzk0NCA1Ljg1NTk3N2wzMS43MTc4NzYgMzEuNzE3ODc2YzcuODExOTY5IDcuODA5OTY5IDIwLjQ3MTkyIDcuODA5OTY5IDI4LjI4NTg5IDBsOTEuNzE3NjQyLTkxLjcxNzY0MWM3Ljc5NTk3LTcuNzk1OTcgMjAuNDc5OTItNy43OTU5NyAyOC4yNzc4ODkgMGExOS44NTk5MjIgMTkuODU5OTIyIDAgMCAxIDUuODU3OTc3IDE0LjEzNzk0NCAxOS44NTU5MjIgMTkuODU1OTIyIDAgMCAxLTUuODU3OTc3IDE0LjEzNzk0NXpNNzkzLjk5NDg5OCA3NzEuOTkyOTg0aC0xMDkuOTkxNTdjLTExLjA0Mzk1NyAwLTE5Ljk5OTkyMiA4Ljk1Mzk2NS0xOS45OTk5MjIgMTkuOTk5OTIyczguOTU1OTY1IDE5Ljk5OTkyMiAxOS45OTk5MjIgMTkuOTk5OTIyaDEwOS45OTE1N2MxMS4wNDM5NTcgMCAxOS45OTk5MjItOC45NTM5NjUgMTkuOTk5OTIyLTE5Ljk5OTkyMnMtOC45NTM5NjUtMTkuOTk5OTIyLTE5Ljk5OTkyMi0xOS45OTk5MjJ6TTU5NC4wMDk2OCA3NzEuOTkyOTg0aC0wLjAxNGMtMTEuMDQ1OTU3IDAtMTkuOTkzOTIyIDguOTUzOTY1LTE5Ljk5MzkyMiAxOS45OTk5MjJzOC45NjE5NjUgMTkuOTk5OTIyIDIwLjAwNzkyMiAxOS45OTk5MjIgMTkuOTk5OTIyLTguOTUzOTY1IDE5Ljk5OTkyMi0xOS45OTk5MjItOC45NTU5NjUtMTkuOTk5OTIyLTE5Ljk5OTkyMi0xOS45OTk5MjJ6TTE1MC4wMTk0MTQgMTcyLjAwNTMyOGMxMS4wNDM5NTcgMCAxOS45OTk5MjItOC45NTM5NjUgMTkuOTk5OTIyLTE5Ljk5OTkyMnMtOC45NTU5NjUtMTkuOTk5OTIyLTE5Ljk5OTkyMi0xOS45OTk5MjJoLTAuMDE0Yy0xMS4wNDM5NTcgMC0xOS45OTE5MjIgOC45NTM5NjUtMTkuOTkxOTIyIDE5Ljk5OTkyMnM4Ljk1OTk2NSAxOS45OTk5MjIgMjAuMDA1OTIyIDE5Ljk5OTkyMnoiLz48L3N2Zz4=" parent="1" vertex="1">
          <mxGeometry x="29" y="-798" width="104" height="104" as="geometry" />
        </mxCell>
        <mxCell id="zTJxkPbpqFRP1l9krlKQ-5" value="&lt;font style=&quot;font-size: 17px;&quot; color=&quot;#4a919b&quot;&gt;浏览器&lt;/font&gt;" style="text;html=1;strokeColor=none;fillColor=none;align=center;verticalAlign=middle;whiteSpace=wrap;rounded=0;fontSize=10;fontColor=#5A6EAB;" parent="1" vertex="1">
          <mxGeometry x="51" y="-696" width="60" height="30" as="geometry" />
        </mxCell>
        <mxCell id="zTJxkPbpqFRP1l9krlKQ-7" value="&lt;font style=&quot;font-size: 17px;&quot; color=&quot;#4a919b&quot;&gt;浏览器缓存&lt;/font&gt;" style="text;html=1;strokeColor=none;fillColor=none;align=center;verticalAlign=middle;whiteSpace=wrap;rounded=0;fontSize=10;fontColor=#5A6EAB;" parent="1" vertex="1">
          <mxGeometry x="221.75" y="-697.5" width="87.8" height="33" as="geometry" />
        </mxCell>
        <mxCell id="zTJxkPbpqFRP1l9krlKQ-9" value="" style="shape=image;verticalLabelPosition=bottom;verticalAlign=top;imageAspect=0;aspect=fixed;image=data:image/svg+xml,PHN2ZyB4bWxuczp4bGluaz0iaHR0cDovL3d3dy53My5vcmcvMTk5OS94bGluayIgeG1sbnM9Imh0dHA6Ly93d3cudzMub3JnLzIwMDAvc3ZnIiBoZWlnaHQ9IjIwMCIgd2lkdGg9IjIwMCIgdmVyc2lvbj0iMS4xIiB2aWV3Qm94PSIwIDAgMTAyNCAxMDI0IiBjbGFzcz0iaWNvbiI+PHBhdGggZmlsbD0iIzRBOTE5QiIgZD0iTTI4OCAzMjBhMzIgMzIgMCAxIDEgMC02NGg0NDhhMzIgMzIgMCAwIDEgMCA2NEgyODh6IG0wIDIyNGEzMiAzMiAwIDAgMSAwLTY0aDQ0OGEzMiAzMiAwIDAgMSAwIDY0SDI4OHogbTAgMjI0YTMyIDMyIDAgMCAxIDAtNjRoMTI4YTMyIDMyIDAgMCAxIDAgNjRIMjg4eiIvPjxwYXRoIGZpbGw9IiM0QTkxOUIiIGQ9Ik04MDcuOTY4IDgwMi4yNGEzMiAzMiAwIDAgMSA0MS45ODQgNDguMzJsLTE1My44NTYgMTMzLjZhMzIgMzIgMCAwIDEtMjAuOTkyIDcuODRIMTk1LjA0QzE0MC4xNiA5OTIgOTYgOTQ2LjYyNCA5NiA4OTEuMDcyVjEzMi45MjhDOTYgNzcuMzc2IDE0MC4xNiAzMiAxOTUuMDQgMzJoNjMzLjkyQzg4My44NCAzMiA5MjggNzcuMzc2IDkyOCAxMzIuOTI4djU2NC4zMmEzMiAzMiAwIDEgMS02NCAwdi01NjQuMzJDODY0IDExMi4zMiA4NDguMDk2IDk2IDgyOC45NiA5NkgxOTUuMDRDMTc1LjkwNCA5NiAxNjAgMTEyLjMyIDE2MCAxMzIuOTI4djc1OC4xNDRDMTYwIDkxMS42OCAxNzUuOTA0IDkyOCAxOTUuMDQgOTI4aDQ2OC4wOTZsMTQ0LjgzMi0xMjUuNzZ6Ii8+PHBhdGggZmlsbD0iIzRBOTE5QiIgZD0iTTcwNCA5NTkuMTM2YTMyIDMyIDAgMSAxLTY0IDB2LTE4Ni4yNEM2NDAgNzE3LjQwOCA2ODQuMTYgNjcyIDczOS4wNCA2NzJoMTU3LjYzMmEzMiAzMiAwIDAgMSAwIDY0SDczOS4wNGMtMTkuMTM2IDAtMzUuMDQgMTYuMzItMzUuMDQgMzYuOTI4djE4Ni4yNHoiLz48L3N2Zz4=" parent="1" vertex="1">
          <mxGeometry x="220.32" y="-793" width="94" height="94" as="geometry" />
        </mxCell>
        <mxCell id="zTJxkPbpqFRP1l9krlKQ-11" value="&lt;font color=&quot;#535e80&quot; style=&quot;font-size: 17px;&quot;&gt;最近的DNS服务器&lt;/font&gt;" style="text;html=1;strokeColor=none;fillColor=none;align=center;verticalAlign=middle;whiteSpace=wrap;rounded=0;fontSize=10;fontColor=#5A6EAB;" parent="1" vertex="1">
          <mxGeometry x="558.75" y="-694.5" width="146.25" height="30" as="geometry" />
        </mxCell>
        <mxCell id="zTJxkPbpqFRP1l9krlKQ-12" value="" style="shape=image;verticalLabelPosition=bottom;verticalAlign=top;imageAspect=0;aspect=fixed;image=data:image/svg+xml,PHN2ZyB4bWxuczp4bGluaz0iaHR0cDovL3d3dy53My5vcmcvMTk5OS94bGluayIgeG1sbnM9Imh0dHA6Ly93d3cudzMub3JnLzIwMDAvc3ZnIiBoZWlnaHQ9IjIwMCIgd2lkdGg9IjIwMCIgdmVyc2lvbj0iMS4xIiB2aWV3Qm94PSIwIDAgMTAyNCAxMDI0IiBjbGFzcz0iaWNvbiI+PHBhdGggZmlsbD0iIzUzNUU4MCIgZD0iTTAgNzI4djEzNmMwIDM1LjMgMjguNyA2NCA2NCA2NGg4OTZjMzUuMyAwIDY0LTI4LjcgNjQtNjRWNzI4YzAtNC40LTMuNi04LTgtOEg4Yy00LjQgMC04IDMuNi04IDh6IG03NzQgOTZjMCA0LjQtMy42IDgtOCA4SDQyNGMtNC40IDAtOC0zLjYtOC04di00OGMwLTQuNCAzLjYtOCA4LThoMzQyYzQuNCAwIDggMy42IDggOHY0OHogbTEyMiAwYzAgNC40LTMuNiA4LTggOGgtNDhjLTQuNCAwLTgtMy42LTgtOHYtNDhjMC00LjQgMy42LTggOC04aDQ4YzQuNCAwIDggMy42IDggOHY0OHpNMCA1MzZ2MTQ0YzAgNC40IDMuNiA4IDggOGgxMDA4YzQuNCAwIDgtMy42IDgtOFY1MzZjMC00LjQtMy42LTgtOC04SDhjLTQuNCAwLTggMy42LTggOHogbTc3NCA5NmMwIDQuNC0zLjYgOC04IDhINDI0Yy00LjQgMC04LTMuNi04LTh2LTQ4YzAtNC40IDMuNi04IDgtOGgzNDJjNC40IDAgOCAzLjYgOCA4djQ4eiBtMTIyIDBjMCA0LjQtMy42IDgtOCA4aC00OGMtNC40IDAtOC0zLjYtOC04di00OGMwLTQuNCAzLjYtOCA4LThoNDhjNC40IDAgOCAzLjYgOCA4djQ4ek0wIDM0NHYxNDRjMCA0LjQgMy42IDggOCA4aDEwMDhjNC40IDAgOC0zLjYgOC04VjM0NGMwLTQuNC0zLjYtOC04LThIOGMtNC40IDAtOCAzLjYtOCA4eiBtNzc0IDk2YzAgNC40LTMuNiA4LTggOEg0MjRjLTQuNCAwLTgtMy42LTgtOHYtNDhjMC00LjQgMy42LTggOC04aDM0MmM0LjQgMCA4IDMuNiA4IDh2NDh6IG0xMjIgMGMwIDQuNC0zLjYgOC04IDhoLTQ4Yy00LjQgMC04LTMuNi04LTh2LTQ4YzAtNC40IDMuNi04IDgtOGg0OGM0LjQgMCA4IDMuNiA4IDh2NDh6TTk2MCA5Nkg2NGMtMzUuMyAwLTY0IDI4LjctNjQgNjR2MTM2YzAgNC40IDMuNiA4IDggOGgxMDA4YzQuNCAwIDgtMy42IDgtOFYxNjBjMC0zNS4zLTI4LjctNjQtNjQtNjR6TTc3NCAyNDhjMCA0LjQtMy42IDgtOCA4SDQyNGMtNC40IDAtOC0zLjYtOC04di00OGMwLTQuNCAzLjYtOCA4LThoMzQyYzQuNCAwIDggMy42IDggOHY0OHogbTEyMiAwYzAgNC40LTMuNiA4LTggOGgtNDhjLTQuNCAwLTgtMy42LTgtOHYtNDhjMC00LjQgMy42LTggOC04aDQ4YzQuNCAwIDggMy42IDggOHY0OHoiLz48L3N2Zz4=" parent="1" vertex="1">
          <mxGeometry x="571.75" y="-797.5" width="106" height="106" as="geometry" />
        </mxCell>
        <mxCell id="zTJxkPbpqFRP1l9krlKQ-13" value="" style="shape=flexArrow;endArrow=classic;html=1;rounded=0;fontSize=17;fontColor=#535E80;strokeColor=none;fillColor=#FDD276;" parent="1" edge="1">
          <mxGeometry width="50" height="50" relative="1" as="geometry">
            <mxPoint x="154" y="-736" as="sourcePoint" />
            <mxPoint x="204" y="-736" as="targetPoint" />
          </mxGeometry>
        </mxCell>
        <mxCell id="zTJxkPbpqFRP1l9krlKQ-14" value="" style="shape=image;verticalLabelPosition=bottom;verticalAlign=top;imageAspect=0;image=data:image/svg+xml,PHN2ZyB4bWxuczp4bGluaz0iaHR0cDovL3d3dy53My5vcmcvMTk5OS94bGluayIgeG1sbnM9Imh0dHA6Ly93d3cudzMub3JnLzIwMDAvc3ZnIiBoZWlnaHQ9IjIwMCIgd2lkdGg9IjIwMCIgdmVyc2lvbj0iMS4xIiB2aWV3Qm94PSIwIDAgMTAyNCAxMDI0IiBjbGFzcz0iaWNvbiI+PGRlZnM+PHN0eWxlIHR5cGU9InRleHQvY3NzIj5AZm9udC1mYWNlIHsgZm9udC1mYW1pbHk6IGZlZWRiYWNrLWljb25mb250OyBzcmM6IHVybCgiLy9hdC5hbGljZG4uY29tL3QvZm9udF8xMDMxMTU4X3U2OXc4eWh4ZHUud29mZjI/dD0xNjMwMDMzNzU5OTQ0IikgZm9ybWF0KCJ3b2ZmMiIpLCB1cmwoIi8vYXQuYWxpY2RuLmNvbS90L2ZvbnRfMTAzMTE1OF91Njl3OHloeGR1LndvZmY/dD0xNjMwMDMzNzU5OTQ0IikgZm9ybWF0KCJ3b2ZmIiksIHVybCgiLy9hdC5hbGljZG4uY29tL3QvZm9udF8xMDMxMTU4X3U2OXc4eWh4ZHUudHRmP3Q9MTYzMDAzMzc1OTk0NCIpIGZvcm1hdCgidHJ1ZXR5cGUiKTsgfSYjeGE7PC9zdHlsZT48L2RlZnM+PHBhdGggZmlsbD0iIzRBOTE5QiIgZD0iTTAgNzI4djEzNmMwIDM1LjMgMjguNyA2NCA2NCA2NGg4OTZjMzUuMyAwIDY0LTI4LjcgNjQtNjRWNzI4YzAtNC40LTMuNi04LTgtOEg4Yy00LjQgMC04IDMuNi04IDh6IG03NzQgOTZjMCA0LjQtMy42IDgtOCA4SDQyNGMtNC40IDAtOC0zLjYtOC04di00OGMwLTQuNCAzLjYtOCA4LThoMzQyYzQuNCAwIDggMy42IDggOHY0OHogbTEyMiAwYzAgNC40LTMuNiA4LTggOGgtNDhjLTQuNCAwLTgtMy42LTgtOHYtNDhjMC00LjQgMy42LTggOC04aDQ4YzQuNCAwIDggMy42IDggOHY0OHpNMCA1MzZ2MTQ0YzAgNC40IDMuNiA4IDggOGgxMDA4YzQuNCAwIDgtMy42IDgtOFY1MzZjMC00LjQtMy42LTgtOC04SDhjLTQuNCAwLTggMy42LTggOHogbTc3NCA5NmMwIDQuNC0zLjYgOC04IDhINDI0Yy00LjQgMC04LTMuNi04LTh2LTQ4YzAtNC40IDMuNi04IDgtOGgzNDJjNC40IDAgOCAzLjYgOCA4djQ4eiBtMTIyIDBjMCA0LjQtMy42IDgtOCA4aC00OGMtNC40IDAtOC0zLjYtOC04di00OGMwLTQuNCAzLjYtOCA4LThoNDhjNC40IDAgOCAzLjYgOCA4djQ4ek0wIDM0NHYxNDRjMCA0LjQgMy42IDggOCA4aDEwMDhjNC40IDAgOC0zLjYgOC04VjM0NGMwLTQuNC0zLjYtOC04LThIOGMtNC40IDAtOCAzLjYtOCA4eiBtNzc0IDk2YzAgNC40LTMuNiA4LTggOEg0MjRjLTQuNCAwLTgtMy42LTgtOHYtNDhjMC00LjQgMy42LTggOC04aDM0MmM0LjQgMCA4IDMuNiA4IDh2NDh6IG0xMjIgMGMwIDQuNC0zLjYgOC04IDhoLTQ4Yy00LjQgMC04LTMuNi04LTh2LTQ4YzAtNC40IDMuNi04IDgtOGg0OGM0LjQgMCA4IDMuNiA4IDh2NDh6TTk2MCA5Nkg2NGMtMzUuMyAwLTY0IDI4LjctNjQgNjR2MTM2YzAgNC40IDMuNiA4IDggOGgxMDA4YzQuNCAwIDgtMy42IDgtOFYxNjBjMC0zNS4zLTI4LjctNjQtNjQtNjR6TTc3NCAyNDhjMCA0LjQtMy42IDgtOCA4SDQyNGMtNC40IDAtOC0zLjYtOC04di00OGMwLTQuNCAzLjYtOCA4LThoMzQyYzQuNCAwIDggMy42IDggOHY0OHogbTEyMiAwYzAgNC40LTMuNiA4LTggOGgtNDhjLTQuNCAwLTgtMy42LTgtOHYtNDhjMC00LjQgMy42LTggOC04aDQ4YzQuNCAwIDggMy42IDggOHY0OHoiLz48L3N2Zz4=;fontSize=17;fontColor=#535E80;" parent="1" vertex="1">
          <mxGeometry x="213.07" y="-594.5" width="108.5" height="108.5" as="geometry" />
        </mxCell>
        <mxCell id="zTJxkPbpqFRP1l9krlKQ-15" value="" style="shape=flexArrow;endArrow=classic;html=1;rounded=0;fontSize=17;fontColor=#535E80;strokeColor=none;fillColor=#FDD276;" parent="1" edge="1">
          <mxGeometry width="50" height="50" relative="1" as="geometry">
            <mxPoint x="504.5" y="-736.5" as="sourcePoint" />
            <mxPoint x="554.5" y="-736.5" as="targetPoint" />
          </mxGeometry>
        </mxCell>
        <mxCell id="zTJxkPbpqFRP1l9krlKQ-18" value="" style="shape=flexArrow;endArrow=classic;html=1;rounded=0;fontSize=17;fontColor=#535E80;strokeColor=none;fillColor=#FDD276;" parent="1" edge="1">
          <mxGeometry width="50" height="50" relative="1" as="geometry">
            <mxPoint x="705" y="-736" as="sourcePoint" />
            <mxPoint x="755" y="-736" as="targetPoint" />
          </mxGeometry>
        </mxCell>
        <mxCell id="zTJxkPbpqFRP1l9krlKQ-20" value="&lt;font style=&quot;font-size: 17px;&quot; color=&quot;#4a919b&quot;&gt;/etc/hosts&lt;/font&gt;" style="text;html=1;strokeColor=none;fillColor=none;align=center;verticalAlign=middle;whiteSpace=wrap;rounded=0;fontSize=10;fontColor=#5A6EAB;" parent="1" vertex="1">
          <mxGeometry x="405" y="-694.5" width="82" height="30" as="geometry" />
        </mxCell>
        <mxCell id="zTJxkPbpqFRP1l9krlKQ-21" value="" style="shape=image;verticalLabelPosition=bottom;verticalAlign=top;imageAspect=0;aspect=fixed;image=data:image/svg+xml,PHN2ZyB4bWxuczp4bGluaz0iaHR0cDovL3d3dy53My5vcmcvMTk5OS94bGluayIgeG1sbnM9Imh0dHA6Ly93d3cudzMub3JnLzIwMDAvc3ZnIiBoZWlnaHQ9IjIwMCIgd2lkdGg9IjIwMCIgdmVyc2lvbj0iMS4xIiB2aWV3Qm94PSIwIDAgMTAyNCAxMDI0IiBjbGFzcz0iaWNvbiI+PHBhdGggZmlsbD0iIzRBOTE5QiIgZD0iTTI4OCAzMjBhMzIgMzIgMCAxIDEgMC02NGg0NDhhMzIgMzIgMCAwIDEgMCA2NEgyODh6IG0wIDIyNGEzMiAzMiAwIDAgMSAwLTY0aDQ0OGEzMiAzMiAwIDAgMSAwIDY0SDI4OHogbTAgMjI0YTMyIDMyIDAgMCAxIDAtNjRoMTI4YTMyIDMyIDAgMCAxIDAgNjRIMjg4eiIvPjxwYXRoIGZpbGw9IiM0QTkxOUIiIGQ9Ik04MDcuOTY4IDgwMi4yNGEzMiAzMiAwIDAgMSA0MS45ODQgNDguMzJsLTE1My44NTYgMTMzLjZhMzIgMzIgMCAwIDEtMjAuOTkyIDcuODRIMTk1LjA0QzE0MC4xNiA5OTIgOTYgOTQ2LjYyNCA5NiA4OTEuMDcyVjEzMi45MjhDOTYgNzcuMzc2IDE0MC4xNiAzMiAxOTUuMDQgMzJoNjMzLjkyQzg4My44NCAzMiA5MjggNzcuMzc2IDkyOCAxMzIuOTI4djU2NC4zMmEzMiAzMiAwIDEgMS02NCAwdi01NjQuMzJDODY0IDExMi4zMiA4NDguMDk2IDk2IDgyOC45NiA5NkgxOTUuMDRDMTc1LjkwNCA5NiAxNjAgMTEyLjMyIDE2MCAxMzIuOTI4djc1OC4xNDRDMTYwIDkxMS42OCAxNzUuOTA0IDkyOCAxOTUuMDQgOTI4aDQ2OC4wOTZsMTQ0LjgzMi0xMjUuNzZ6Ii8+PHBhdGggZmlsbD0iIzRBOTE5QiIgZD0iTTcwNCA5NTkuMTM2YTMyIDMyIDAgMSAxLTY0IDB2LTE4Ni4yNEM2NDAgNzE3LjQwOCA2ODQuMTYgNjcyIDczOS4wNCA2NzJoMTU3LjYzMmEzMiAzMiAwIDAgMSAwIDY0SDczOS4wNGMtMTkuMTM2IDAtMzUuMDQgMTYuMzItMzUuMDQgMzYuOTI4djE4Ni4yNHoiLz48L3N2Zz4=" parent="1" vertex="1">
          <mxGeometry x="399" y="-791.5" width="94" height="94" as="geometry" />
        </mxCell>
        <mxCell id="zTJxkPbpqFRP1l9krlKQ-22" value="" style="shape=flexArrow;endArrow=classic;html=1;rounded=0;fontSize=17;fontColor=#535E80;strokeColor=none;fillColor=#FDD276;" parent="1" edge="1">
          <mxGeometry width="50" height="50" relative="1" as="geometry">
            <mxPoint x="333.75" y="-736" as="sourcePoint" />
            <mxPoint x="383.75" y="-736" as="targetPoint" />
          </mxGeometry>
        </mxCell>
        <mxCell id="zTJxkPbpqFRP1l9krlKQ-25" value="&lt;font style=&quot;font-size: 17px;&quot;&gt;&lt;font color=&quot;#535e80&quot;&gt;最近的DNS服务器&lt;br&gt;的缓存&lt;/font&gt;&lt;br&gt;&lt;/font&gt;" style="text;html=1;strokeColor=none;fillColor=none;align=center;verticalAlign=middle;whiteSpace=wrap;rounded=0;fontSize=10;fontColor=#5A6EAB;" parent="1" vertex="1">
          <mxGeometry x="738.25" y="-697.5" width="146.25" height="58" as="geometry" />
        </mxCell>
        <mxCell id="zTJxkPbpqFRP1l9krlKQ-26" value="" style="shape=image;verticalLabelPosition=bottom;verticalAlign=top;imageAspect=0;aspect=fixed;image=data:image/svg+xml,PHN2ZyB4bWxuczp4bGluaz0iaHR0cDovL3d3dy53My5vcmcvMTk5OS94bGluayIgeG1sbnM9Imh0dHA6Ly93d3cudzMub3JnLzIwMDAvc3ZnIiBoZWlnaHQ9IjIwMCIgd2lkdGg9IjIwMCIgdmVyc2lvbj0iMS4xIiB2aWV3Qm94PSIwIDAgMTAyNCAxMDI0IiBjbGFzcz0iaWNvbiI+PHBhdGggZmlsbD0iIzVBNkVBQiIgZD0iTTAgNzI4djEzNmMwIDM1LjMgMjguNyA2NCA2NCA2NGg4OTZjMzUuMyAwIDY0LTI4LjcgNjQtNjRWNzI4YzAtNC40LTMuNi04LTgtOEg4Yy00LjQgMC04IDMuNi04IDh6IG03NzQgOTZjMCA0LjQtMy42IDgtOCA4SDQyNGMtNC40IDAtOC0zLjYtOC04di00OGMwLTQuNCAzLjYtOCA4LThoMzQyYzQuNCAwIDggMy42IDggOHY0OHogbTEyMiAwYzAgNC40LTMuNiA4LTggOGgtNDhjLTQuNCAwLTgtMy42LTgtOHYtNDhjMC00LjQgMy42LTggOC04aDQ4YzQuNCAwIDggMy42IDggOHY0OHpNMCA1MzZ2MTQ0YzAgNC40IDMuNiA4IDggOGgxMDA4YzQuNCAwIDgtMy42IDgtOFY1MzZjMC00LjQtMy42LTgtOC04SDhjLTQuNCAwLTggMy42LTggOHogbTc3NCA5NmMwIDQuNC0zLjYgOC04IDhINDI0Yy00LjQgMC04LTMuNi04LTh2LTQ4YzAtNC40IDMuNi04IDgtOGgzNDJjNC40IDAgOCAzLjYgOCA4djQ4eiBtMTIyIDBjMCA0LjQtMy42IDgtOCA4aC00OGMtNC40IDAtOC0zLjYtOC04di00OGMwLTQuNCAzLjYtOCA4LThoNDhjNC40IDAgOCAzLjYgOCA4djQ4ek0wIDM0NHYxNDRjMCA0LjQgMy42IDggOCA4aDEwMDhjNC40IDAgOC0zLjYgOC04VjM0NGMwLTQuNC0zLjYtOC04LThIOGMtNC40IDAtOCAzLjYtOCA4eiBtNzc0IDk2YzAgNC40LTMuNiA4LTggOEg0MjRjLTQuNCAwLTgtMy42LTgtOHYtNDhjMC00LjQgMy42LTggOC04aDM0MmM0LjQgMCA4IDMuNiA4IDh2NDh6IG0xMjIgMGMwIDQuNC0zLjYgOC04IDhoLTQ4Yy00LjQgMC04LTMuNi04LTh2LTQ4YzAtNC40IDMuNi04IDgtOGg0OGM0LjQgMCA4IDMuNiA4IDh2NDh6TTk2MCA5Nkg2NGMtMzUuMyAwLTY0IDI4LjctNjQgNjR2MTM2YzAgNC40IDMuNiA4IDggOGgxMDA4YzQuNCAwIDgtMy42IDgtOFYxNjBjMC0zNS4zLTI4LjctNjQtNjQtNjR6TTc3NCAyNDhjMCA0LjQtMy42IDgtOCA4SDQyNGMtNC40IDAtOC0zLjYtOC04di00OGMwLTQuNCAzLjYtOCA4LThoMzQyYzQuNCAwIDggMy42IDggOHY0OHogbTEyMiAwYzAgNC40LTMuNiA4LTggOGgtNDhjLTQuNCAwLTgtMy42LTgtOHYtNDhjMC00LjQgMy42LTggOC04aDQ4YzQuNCAwIDggMy42IDggOHY0OHoiLz48L3N2Zz4=" parent="1" vertex="1">
          <mxGeometry x="760.49" y="-591" width="105" height="105" as="geometry" />
        </mxCell>
        <mxCell id="zTJxkPbpqFRP1l9krlKQ-27" value="&lt;font color=&quot;#535e80&quot; style=&quot;font-size: 17px;&quot;&gt;根域服务器&lt;/font&gt;" style="text;html=1;strokeColor=none;fillColor=none;align=center;verticalAlign=middle;whiteSpace=wrap;rounded=0;fontSize=10;fontColor=#5A6EAB;" parent="1" vertex="1">
          <mxGeometry x="756.3" y="-491" width="113.38" height="30" as="geometry" />
        </mxCell>
        <mxCell id="zTJxkPbpqFRP1l9krlKQ-29" value="&lt;font color=&quot;#f19c99&quot; style=&quot;font-size: 17px;&quot;&gt;一级域服务器&lt;/font&gt;" style="text;html=1;strokeColor=none;fillColor=none;align=center;verticalAlign=middle;whiteSpace=wrap;rounded=0;fontSize=10;fontColor=#5A6EAB;" parent="1" vertex="1">
          <mxGeometry x="551.63" y="-491" width="146.25" height="30" as="geometry" />
        </mxCell>
        <mxCell id="zTJxkPbpqFRP1l9krlKQ-31" value="&lt;font color=&quot;#c89932&quot; style=&quot;font-size: 17px;&quot;&gt;二级域服务器&lt;/font&gt;" style="text;html=1;strokeColor=none;fillColor=none;align=center;verticalAlign=middle;whiteSpace=wrap;rounded=0;fontSize=10;fontColor=#5A6EAB;" parent="1" vertex="1">
          <mxGeometry x="372.87" y="-491" width="146.25" height="30" as="geometry" />
        </mxCell>
        <mxCell id="zTJxkPbpqFRP1l9krlKQ-33" value="&lt;font color=&quot;#4a919b&quot; style=&quot;font-size: 17px;&quot;&gt;三级域服务器&lt;/font&gt;" style="text;html=1;strokeColor=none;fillColor=none;align=center;verticalAlign=middle;whiteSpace=wrap;rounded=0;fontSize=10;fontColor=#5A6EAB;" parent="1" vertex="1">
          <mxGeometry x="194.19" y="-491" width="146.25" height="30" as="geometry" />
        </mxCell>
        <mxCell id="zTJxkPbpqFRP1l9krlKQ-34" value="" style="shape=image;verticalLabelPosition=bottom;verticalAlign=top;imageAspect=0;aspect=fixed;image=data:image/svg+xml,PHN2ZyB4bWxuczp4bGluaz0iaHR0cDovL3d3dy53My5vcmcvMTk5OS94bGluayIgeG1sbnM9Imh0dHA6Ly93d3cudzMub3JnLzIwMDAvc3ZnIiBoZWlnaHQ9IjIwMCIgd2lkdGg9IjIwMCIgdmVyc2lvbj0iMS4xIiB2aWV3Qm94PSIwIDAgMTAyNCAxMDI0IiBjbGFzcz0iaWNvbiI+PHBhdGggZmlsbD0iI0M4OTkzMiIgZD0iTTAgNzI4djEzNmMwIDM1LjMgMjguNyA2NCA2NCA2NGg4OTZjMzUuMyAwIDY0LTI4LjcgNjQtNjRWNzI4YzAtNC40LTMuNi04LTgtOEg4Yy00LjQgMC04IDMuNi04IDh6IG03NzQgOTZjMCA0LjQtMy42IDgtOCA4SDQyNGMtNC40IDAtOC0zLjYtOC04di00OGMwLTQuNCAzLjYtOCA4LThoMzQyYzQuNCAwIDggMy42IDggOHY0OHogbTEyMiAwYzAgNC40LTMuNiA4LTggOGgtNDhjLTQuNCAwLTgtMy42LTgtOHYtNDhjMC00LjQgMy42LTggOC04aDQ4YzQuNCAwIDggMy42IDggOHY0OHpNMCA1MzZ2MTQ0YzAgNC40IDMuNiA4IDggOGgxMDA4YzQuNCAwIDgtMy42IDgtOFY1MzZjMC00LjQtMy42LTgtOC04SDhjLTQuNCAwLTggMy42LTggOHogbTc3NCA5NmMwIDQuNC0zLjYgOC04IDhINDI0Yy00LjQgMC04LTMuNi04LTh2LTQ4YzAtNC40IDMuNi04IDgtOGgzNDJjNC40IDAgOCAzLjYgOCA4djQ4eiBtMTIyIDBjMCA0LjQtMy42IDgtOCA4aC00OGMtNC40IDAtOC0zLjYtOC04di00OGMwLTQuNCAzLjYtOCA4LThoNDhjNC40IDAgOCAzLjYgOCA4djQ4ek0wIDM0NHYxNDRjMCA0LjQgMy42IDggOCA4aDEwMDhjNC40IDAgOC0zLjYgOC04VjM0NGMwLTQuNC0zLjYtOC04LThIOGMtNC40IDAtOCAzLjYtOCA4eiBtNzc0IDk2YzAgNC40LTMuNiA4LTggOEg0MjRjLTQuNCAwLTgtMy42LTgtOHYtNDhjMC00LjQgMy42LTggOC04aDM0MmM0LjQgMCA4IDMuNiA4IDh2NDh6IG0xMjIgMGMwIDQuNC0zLjYgOC04IDhoLTQ4Yy00LjQgMC04LTMuNi04LTh2LTQ4YzAtNC40IDMuNi04IDgtOGg0OGM0LjQgMCA4IDMuNiA4IDh2NDh6TTk2MCA5Nkg2NGMtMzUuMyAwLTY0IDI4LjctNjQgNjR2MTM2YzAgNC40IDMuNiA4IDggOGgxMDA4YzQuNCAwIDgtMy42IDgtOFYxNjBjMC0zNS4zLTI4LjctNjQtNjQtNjR6TTc3NCAyNDhjMCA0LjQtMy42IDgtOCA4SDQyNGMtNC40IDAtOC0zLjYtOC04di00OGMwLTQuNCAzLjYtOCA4LThoMzQyYzQuNCAwIDggMy42IDggOHY0OHogbTEyMiAwYzAgNC40LTMuNiA4LTggOGgtNDhjLTQuNCAwLTgtMy42LTgtOHYtNDhjMC00LjQgMy42LTggOC04aDQ4YzQuNCAwIDggMy42IDggOHY0OHoiLz48L3N2Zz4=" parent="1" vertex="1">
          <mxGeometry x="392.03999999999996" y="-594.5" width="107.93" height="107.93" as="geometry" />
        </mxCell>
        <mxCell id="zTJxkPbpqFRP1l9krlKQ-35" value="" style="shape=image;verticalLabelPosition=bottom;verticalAlign=top;imageAspect=0;aspect=fixed;image=data:image/svg+xml,PHN2ZyB4bWxuczp4bGluaz0iaHR0cDovL3d3dy53My5vcmcvMTk5OS94bGluayIgeG1sbnM9Imh0dHA6Ly93d3cudzMub3JnLzIwMDAvc3ZnIiBoZWlnaHQ9IjIwMCIgd2lkdGg9IjIwMCIgdmVyc2lvbj0iMS4xIiB2aWV3Qm94PSIwIDAgMTAyNCAxMDI0IiBjbGFzcz0iaWNvbiI+PHBhdGggZmlsbD0iI0YxOUM5OSIgZD0iTTAgNzI4djEzNmMwIDM1LjMgMjguNyA2NCA2NCA2NGg4OTZjMzUuMyAwIDY0LTI4LjcgNjQtNjRWNzI4YzAtNC40LTMuNi04LTgtOEg4Yy00LjQgMC04IDMuNi04IDh6IG03NzQgOTZjMCA0LjQtMy42IDgtOCA4SDQyNGMtNC40IDAtOC0zLjYtOC04di00OGMwLTQuNCAzLjYtOCA4LThoMzQyYzQuNCAwIDggMy42IDggOHY0OHogbTEyMiAwYzAgNC40LTMuNiA4LTggOGgtNDhjLTQuNCAwLTgtMy42LTgtOHYtNDhjMC00LjQgMy42LTggOC04aDQ4YzQuNCAwIDggMy42IDggOHY0OHpNMCA1MzZ2MTQ0YzAgNC40IDMuNiA4IDggOGgxMDA4YzQuNCAwIDgtMy42IDgtOFY1MzZjMC00LjQtMy42LTgtOC04SDhjLTQuNCAwLTggMy42LTggOHogbTc3NCA5NmMwIDQuNC0zLjYgOC04IDhINDI0Yy00LjQgMC04LTMuNi04LTh2LTQ4YzAtNC40IDMuNi04IDgtOGgzNDJjNC40IDAgOCAzLjYgOCA4djQ4eiBtMTIyIDBjMCA0LjQtMy42IDgtOCA4aC00OGMtNC40IDAtOC0zLjYtOC04di00OGMwLTQuNCAzLjYtOCA4LThoNDhjNC40IDAgOCAzLjYgOCA4djQ4ek0wIDM0NHYxNDRjMCA0LjQgMy42IDggOCA4aDEwMDhjNC40IDAgOC0zLjYgOC04VjM0NGMwLTQuNC0zLjYtOC04LThIOGMtNC40IDAtOCAzLjYtOCA4eiBtNzc0IDk2YzAgNC40LTMuNiA4LTggOEg0MjRjLTQuNCAwLTgtMy42LTgtOHYtNDhjMC00LjQgMy42LTggOC04aDM0MmM0LjQgMCA4IDMuNiA4IDh2NDh6IG0xMjIgMGMwIDQuNC0zLjYgOC04IDhoLTQ4Yy00LjQgMC04LTMuNi04LTh2LTQ4YzAtNC40IDMuNi04IDgtOGg0OGM0LjQgMCA4IDMuNiA4IDh2NDh6TTk2MCA5Nkg2NGMtMzUuMyAwLTY0IDI4LjctNjQgNjR2MTM2YzAgNC40IDMuNiA4IDggOGgxMDA4YzQuNCAwIDgtMy42IDgtOFYxNjBjMC0zNS4zLTI4LjctNjQtNjQtNjR6TTc3NCAyNDhjMCA0LjQtMy42IDgtOCA4SDQyNGMtNC40IDAtOC0zLjYtOC04di00OGMwLTQuNCAzLjYtOCA4LThoMzQyYzQuNCAwIDggMy42IDggOHY0OHogbTEyMiAwYzAgNC40LTMuNiA4LTggOGgtNDhjLTQuNCAwLTgtMy42LTgtOHYtNDhjMC00LjQgMy42LTggOC04aDQ4YzQuNCAwIDggMy42IDggOHY0OHoiLz48L3N2Zz4=" parent="1" vertex="1">
          <mxGeometry x="571.75" y="-591.98" width="106.96" height="106.96" as="geometry" />
        </mxCell>
        <mxCell id="zTJxkPbpqFRP1l9krlKQ-36" value="" style="shape=flexArrow;endArrow=none;html=1;rounded=0;fontSize=17;fontColor=#535E80;strokeColor=none;fillColor=#FDD276;startArrow=block;endFill=0;" parent="1" edge="1">
          <mxGeometry width="50" height="50" relative="1" as="geometry">
            <mxPoint x="332" y="-540.84" as="sourcePoint" />
            <mxPoint x="382" y="-540.84" as="targetPoint" />
          </mxGeometry>
        </mxCell>
        <mxCell id="zTJxkPbpqFRP1l9krlKQ-37" value="" style="shape=flexArrow;endArrow=none;html=1;rounded=0;fontSize=17;fontColor=#535E80;strokeColor=none;fillColor=#FDD276;startArrow=block;endFill=0;" parent="1" edge="1">
          <mxGeometry width="50" height="50" relative="1" as="geometry">
            <mxPoint x="511" y="-538.7100000000002" as="sourcePoint" />
            <mxPoint x="561" y="-538.7100000000002" as="targetPoint" />
          </mxGeometry>
        </mxCell>
        <mxCell id="zTJxkPbpqFRP1l9krlKQ-38" value="" style="shape=flexArrow;endArrow=none;html=1;rounded=0;fontSize=17;fontColor=#535E80;strokeColor=none;fillColor=#FDD276;startArrow=block;endFill=0;" parent="1" edge="1">
          <mxGeometry width="50" height="50" relative="1" as="geometry">
            <mxPoint x="694.62" y="-538.7100000000002" as="sourcePoint" />
            <mxPoint x="744.62" y="-538.7100000000002" as="targetPoint" />
          </mxGeometry>
        </mxCell>
        <mxCell id="zTJxkPbpqFRP1l9krlKQ-39" value="" style="shape=flexArrow;endArrow=none;html=1;rounded=0;fontSize=17;fontColor=#535E80;strokeColor=none;fillColor=#FDD276;startArrow=block;endFill=0;" parent="1" edge="1">
          <mxGeometry width="50" height="50" relative="1" as="geometry">
            <mxPoint x="812.8599999999999" y="-594.5000000000001" as="sourcePoint" />
            <mxPoint x="812.86" y="-638.52" as="targetPoint" />
          </mxGeometry>
        </mxCell>
        <mxCell id="zTJxkPbpqFRP1l9krlKQ-40" value="" style="shape=image;verticalLabelPosition=bottom;verticalAlign=top;imageAspect=0;aspect=fixed;image=data:image/svg+xml,PHN2ZyB4bWxuczp4bGluaz0iaHR0cDovL3d3dy53My5vcmcvMTk5OS94bGluayIgeG1sbnM9Imh0dHA6Ly93d3cudzMub3JnLzIwMDAvc3ZnIiBoZWlnaHQ9IjIwMCIgd2lkdGg9IjIwMCIgdmVyc2lvbj0iMS4xIiB2aWV3Qm94PSIwIDAgMTAyNCAxMDI0IiBjbGFzcz0iaWNvbiI+PHBhdGggZmlsbD0iIzRBOTE5QiIgZD0iTTM5OS4xNDY2NjcgMzM5LjYyNjY2N2MtMjEuMTIgMC0zNy43NiA3Ljg5MzMzMy00OS45MiAyMy40NjY2NjZzLTE4LjEzMzMzMyAzNi4wNTMzMzMtMTguMTMzMzM0IDYxLjAxMzMzNGMwIDI0LjUzMzMzMyA1Ljk3MzMzMyA0NC44IDE3LjcwNjY2NyA2MC4zNzMzMzMgMTEuNzMzMzMzIDE1LjU3MzMzMyAyOC4xNiAyMy40NjY2NjcgNDguODUzMzMzIDIzLjQ2NjY2NyAyMS4xMiAwIDM3LjU0NjY2Ny03LjQ2NjY2NyA0OS4yOC0yMi40IDExLjczMzMzMy0xNC45MzMzMzMgMTcuNzA2NjY3LTM0Ljk4NjY2NyAxNy43MDY2NjctNjAuMzczMzM0IDAtMjYuNDUzMzMzLTUuNzYtNDcuMTQ2NjY3LTE3LjA2NjY2Ny02Mi41MDY2NjYtMTEuNTItMTUuMzYtMjcuNTItMjMuMDQtNDguNDI2NjY2LTIzLjA0eiIvPjxwYXRoIGZpbGw9IiM0QTkxOUIiIGQ9Ik04MzIgMTA2LjY2NjY2N0gxOTJDMTQ0Ljg1MzMzMyAxMDYuNjY2NjY3IDEwNi42NjY2NjcgMTQ0Ljg1MzMzMyAxMDYuNjY2NjY3IDE5MnY0NjkuMzMzMzMzYzAgNDcuMTQ2NjY3IDM4LjE4NjY2NyA4NS4zMzMzMzMgODUuMzMzMzMzIDg1LjMzMzMzNGgyMTMuMzMzMzMzbC00Mi42NjY2NjYgMTA2LjY2NjY2NmgtNzQuNjY2NjY3Yy0xNy43MDY2NjcgMC0zMiAxNC4yOTMzMzMtMzIgMzJzMTQuMjkzMzMzIDMyIDMyIDMyaDQ0OGMxNy43MDY2NjcgMCAzMi0xNC4yOTMzMzMgMzItMzJzLTE0LjI5MzMzMy0zMi0zMi0zMkg2NjEuMzMzMzMzbC00Mi42NjY2NjYtMTA2LjY2NjY2NmgyMTMuMzMzMzMzYzQ3LjE0NjY2NyAwIDg1LjMzMzMzMy0zOC4xODY2NjcgODUuMzMzMzMzLTg1LjMzMzMzNFYxOTJjMC00Ny4xNDY2NjctMzguMTg2NjY3LTg1LjMzMzMzMy04NS4zMzMzMzMtODUuMzMzMzMzek0zOTYuOCA1NTQuNjY2NjY3Yy0zNi4yNjY2NjcgMC02NS43MDY2NjctMTEuOTQ2NjY3LTg4LjMyLTM1LjYyNjY2Ny0yMi42MTMzMzMtMjMuODkzMzMzLTMzLjkyLTU0LjQtMzMuOTItOTEuOTQ2NjY3IDAtMzkuNjggMTEuNTItNzEuODkzMzMzIDM0Ljc3MzMzMy05Ni44NTMzMzMgMjMuMDQtMjQuOTYgNTMuNzYtMzcuMzMzMzMzIDkxLjczMzMzNC0zNy4zMzMzMzMgMzYuMDUzMzMzIDAgNjUuMjggMTEuOTQ2NjY3IDg3LjI1MzMzMyAzNi4wNTMzMzNzMzMuMDY2NjY3IDU1LjA0IDMzLjA2NjY2NyA5Mi44YzAgMzkuNDY2NjY3LTExLjUyIDcxLjQ2NjY2Ny0zNC4zNDY2NjcgOTZDNDYzLjc4NjY2NyA1NDIuMjkzMzMzIDQzMy45MiA1NTQuNjY2NjY3IDM5Ni44IDU1NC42NjY2Njd6IG0zMDAuMTYtMTkuMmMtMTcuMjggMTIuOC00MS42IDE5LjItNzMuMzg2NjY3IDE5LjItMjkuMDEzMzMzIDAtNTIuNjkzMzMzLTQuNjkzMzMzLTcxLjI1MzMzMy0xNC4wOHYtNTMuOTczMzM0YzIwLjI2NjY2NyAxNi44NTMzMzMgNDMuNTIgMjUuMzg2NjY3IDY5LjMzMzMzMyAyNS4zODY2NjcgMTQuNzIgMCAyNS44MTMzMzMtMi41NiAzMy4wNjY2NjctNy42OCA3LjQ2NjY2Ny01LjEyIDExLjA5MzMzMy0xMS41MiAxMS4wOTMzMzMtMTkuNDEzMzMzIDAtNi44MjY2NjctMi45ODY2NjctMTMuNDQtOC43NDY2NjYtMTkuNDEzMzM0cy0yMS4zMzMzMzMtMTQuMjkzMzMzLTQ2LjUwNjY2Ny0yNC43NDY2NjZjLTM5LjQ2NjY2Ny0xNi44NTMzMzMtNTkuMzA2NjY3LTQxLjE3MzMzMy01OS4zMDY2NjctNzMuMTczMzM0IDAtMjMuNDY2NjY3IDguOTYtNDEuODEzMzMzIDI2Ljg4LTU0LjgyNjY2NnM0MS42LTE5LjQxMzMzMyA3MS4wNC0xOS40MTMzMzRjMjQuNzQ2NjY3IDAgNDUuNDQgMy4yIDYyLjI5MzMzNCA5LjZ2NTAuNTZjLTE3LjA2NjY2Ny0xMS41Mi0zNi45MDY2NjctMTcuMjgtNTkuNTItMTcuMjgtMTMuMjI2NjY3IDAtMjMuODkzMzMzIDIuMzQ2NjY3LTMxLjc4NjY2NyA3LjI1MzMzNC03Ljg5MzMzMyA0LjkwNjY2Ny0xMS45NDY2NjcgMTEuMzA2NjY3LTExLjk0NjY2NyAxOS40MTMzMzMgMCA2LjYxMzMzMyAyLjc3MzMzMyAxMi41ODY2NjcgOC4xMDY2NjcgMTguMTMzMzMzIDUuNTQ2NjY3IDUuNTQ2NjY3IDE4Ljk4NjY2NyAxMy4wMTMzMzMgNDAuMzIgMjIuNCAyNS4xNzMzMzMgMTAuODggNDIuNDUzMzMzIDIyLjE4NjY2NyA1MS44NCAzNC4xMzMzMzRzMTQuMDggMjYuMjQgMTQuMDggNDIuODhjMC4yMTMzMzMgMjMuODkzMzMzLTguNTMzMzMzIDQyLjQ1MzMzMy0yNS42IDU1LjA0eiIvPjwvc3ZnPg==" parent="1" vertex="1">
          <mxGeometry x="465" y="-732" width="48" height="48" as="geometry" />
        </mxCell>
        <mxCell id="zTJxkPbpqFRP1l9krlKQ-41" value="" style="shape=image;verticalLabelPosition=bottom;verticalAlign=top;imageAspect=0;aspect=fixed;image=data:image/svg+xml,PHN2ZyB4bWxuczp4bGluaz0iaHR0cDovL3d3dy53My5vcmcvMTk5OS94bGluayIgeG1sbnM9Imh0dHA6Ly93d3cudzMub3JnLzIwMDAvc3ZnIiBoZWlnaHQ9IjIwMCIgd2lkdGg9IjIwMCIgdmVyc2lvbj0iMS4xIiB2aWV3Qm94PSIwIDAgMTAyNCAxMDI0IiBjbGFzcz0iaWNvbiI+PHBhdGggZmlsbD0iIzUzNUU4MCIgZD0iTTg4Ni43IDI0Ny42TDcxMy40IDczLjRjLTYtNi0xNC4yLTkuNC0yMi43LTkuNEgxOTJjLTM1LjMgMC02NCAyOC43LTY0IDY0djc2OGMwIDM1LjMgMjguNyA2NCA2NCA2NGg2NDBjMzUuMyAwIDY0LTI4LjcgNjQtNjRWMjcwLjJjMC04LjUtMy4zLTE2LjYtOS4zLTIyLjZ6TTgzMiA4NjRjMCAxNy43LTE0LjMgMzItMzIgMzJIMjI0Yy0xNy43IDAtMzItMTQuMy0zMi0zMlYxNjBjMC0xNy43IDE0LjMtMzIgMzItMzJoMzg0djE2MGMwIDM1LjMgMjguNyA2NCA2NCA2NGgxNjB2NTEyek03MDQgMjg4Yy0xNy43IDAtMzItMTQuMy0zMi0zMlYxMjhsMTYwIDE2MEg3MDR6Ii8+PHBhdGggZmlsbD0iIzUzNUU4MCIgZD0iTTY3MSA2NzJIMjg3Yy0xNy43IDAtMzIgMTQuMy0zMiAzMnMxNC4zIDMyIDMyIDMyaDM4NGMxNy43IDAgMzItMTQuMyAzMi0zMnMtMTQuMy0zMi0zMi0zMnpNMjg3IDQ4MGMtMTcuNyAwLTMyIDE0LjMtMzIgMzJzMTQuMyAzMiAzMiAzMmgzODRjMTcuNyAwIDMyLTE0LjMgMzItMzJzLTE0LjMtMzItMzItMzJIMjg3ek0yODcgMzUyaDE5MmMxNy43IDAgMzItMTQuMyAzMi0zMnMtMTQuMy0zMi0zMi0zMkgyODdjLTE3LjcgMC0zMiAxNC4zLTMyIDMyczE0LjMgMzIgMzIgMzJ6Ii8+PC9zdmc+;fontSize=17;fontColor=#C89932;" parent="1" vertex="1">
          <mxGeometry x="760.38" y="-793" width="102" height="102" as="geometry" />
        </mxCell>
        <mxCell id="zTJxkPbpqFRP1l9krlKQ-43" value="" style="rounded=1;whiteSpace=wrap;html=1;fontSize=17;fontColor=#535E80;strokeColor=none;fillColor=#EFF1F3;" parent="1" vertex="1">
          <mxGeometry x="829" y="-718" width="26" height="20.5" as="geometry" />
        </mxCell>
        <mxCell id="zTJxkPbpqFRP1l9krlKQ-42" value="" style="shape=image;verticalLabelPosition=bottom;verticalAlign=top;imageAspect=0;aspect=fixed;image=data:image/svg+xml,PHN2ZyB4bWxuczp4bGluaz0iaHR0cDovL3d3dy53My5vcmcvMTk5OS94bGluayIgeG1sbnM9Imh0dHA6Ly93d3cudzMub3JnLzIwMDAvc3ZnIiBoZWlnaHQ9IjIwMCIgd2lkdGg9IjIwMCIgdmVyc2lvbj0iMS4xIiB2aWV3Qm94PSIwIDAgMTAyNCAxMDI0IiBjbGFzcz0iaWNvbiI+PHBhdGggZmlsbD0iIzUzNUU4MCIgZD0iTTAgNzI4djEzNmMwIDM1LjMgMjguNyA2NCA2NCA2NGg4OTZjMzUuMyAwIDY0LTI4LjcgNjQtNjRWNzI4YzAtNC40LTMuNi04LTgtOEg4Yy00LjQgMC04IDMuNi04IDh6IG03NzQgOTZjMCA0LjQtMy42IDgtOCA4SDQyNGMtNC40IDAtOC0zLjYtOC04di00OGMwLTQuNCAzLjYtOCA4LThoMzQyYzQuNCAwIDggMy42IDggOHY0OHogbTEyMiAwYzAgNC40LTMuNiA4LTggOGgtNDhjLTQuNCAwLTgtMy42LTgtOHYtNDhjMC00LjQgMy42LTggOC04aDQ4YzQuNCAwIDggMy42IDggOHY0OHpNMCA1MzZ2MTQ0YzAgNC40IDMuNiA4IDggOGgxMDA4YzQuNCAwIDgtMy42IDgtOFY1MzZjMC00LjQtMy42LTgtOC04SDhjLTQuNCAwLTggMy42LTggOHogbTc3NCA5NmMwIDQuNC0zLjYgOC04IDhINDI0Yy00LjQgMC04LTMuNi04LTh2LTQ4YzAtNC40IDMuNi04IDgtOGgzNDJjNC40IDAgOCAzLjYgOCA4djQ4eiBtMTIyIDBjMCA0LjQtMy42IDgtOCA4aC00OGMtNC40IDAtOC0zLjYtOC04di00OGMwLTQuNCAzLjYtOCA4LThoNDhjNC40IDAgOCAzLjYgOCA4djQ4ek0wIDM0NHYxNDRjMCA0LjQgMy42IDggOCA4aDEwMDhjNC40IDAgOC0zLjYgOC04VjM0NGMwLTQuNC0zLjYtOC04LThIOGMtNC40IDAtOCAzLjYtOCA4eiBtNzc0IDk2YzAgNC40LTMuNiA4LTggOEg0MjRjLTQuNCAwLTgtMy42LTgtOHYtNDhjMC00LjQgMy42LTggOC04aDM0MmM0LjQgMCA4IDMuNiA4IDh2NDh6IG0xMjIgMGMwIDQuNC0zLjYgOC04IDhoLTQ4Yy00LjQgMC04LTMuNi04LTh2LTQ4YzAtNC40IDMuNi04IDgtOGg0OGM0LjQgMCA4IDMuNiA4IDh2NDh6TTk2MCA5Nkg2NGMtMzUuMyAwLTY0IDI4LjctNjQgNjR2MTM2YzAgNC40IDMuNiA4IDggOGgxMDA4YzQuNCAwIDgtMy42IDgtOFYxNjBjMC0zNS4zLTI4LjctNjQtNjQtNjR6TTc3NCAyNDhjMCA0LjQtMy42IDgtOCA4SDQyNGMtNC40IDAtOC0zLjYtOC04di00OGMwLTQuNCAzLjYtOCA4LThoMzQyYzQuNCAwIDggMy42IDggOHY0OHogbTEyMiAwYzAgNC40LTMuNiA4LTggOGgtNDhjLTQuNCAwLTgtMy42LTgtOHYtNDhjMC00LjQgMy42LTggOC04aDQ4YzQuNCAwIDggMy42IDggOHY0OHoiLz48L3N2Zz4=" parent="1" vertex="1">
          <mxGeometry x="829.25" y="-720.88" width="25.75" height="25.75" as="geometry" />
        </mxCell>
        <mxCell id="zTJxkPbpqFRP1l9krlKQ-44" value="" style="rounded=1;whiteSpace=wrap;html=1;fontSize=17;fontColor=#535E80;strokeColor=none;fillColor=#EFF1F3;" parent="1" vertex="1">
          <mxGeometry x="276.98" y="-732.5" width="35.68" height="34" as="geometry" />
        </mxCell>
        <mxCell id="zTJxkPbpqFRP1l9krlKQ-8" value="" style="shape=image;verticalLabelPosition=bottom;verticalAlign=top;imageAspect=0;aspect=fixed;image=data:image/svg+xml,PHN2ZyB4bWxuczp4bGluaz0iaHR0cDovL3d3dy53My5vcmcvMTk5OS94bGluayIgeG1sbnM9Imh0dHA6Ly93d3cudzMub3JnLzIwMDAvc3ZnIiBoZWlnaHQ9IjIwMCIgd2lkdGg9IjIwMCIgdmVyc2lvbj0iMS4xIiB2aWV3Qm94PSIwIDAgMTAyNCAxMDI0IiBjbGFzcz0iaWNvbiI+PHBhdGggZmlsbD0iI0JCQkJCQiIgZD0iTTM4Mi40IDUxNC40YzAgNjkuNiA1Ny42IDEyNy4yIDEyNy4yIDEyNy4yUzYzNi44IDU4NCA2MzYuOCA1MTQuNHMtNTcuNi0xMjcuMi0xMjcuMi0xMjcuMi0xMjcuMiA1Ny42LTEyNy4yIDEyNy4yeiIvPjxwYXRoIGZpbGw9IiNGNzVCNjAiIGQ9Ik01MDkuNiAzMjBoNDAwLjhDODM4LjQgMTcxLjIgNjg3LjIgNzAuNCA1MTIgNzAuNGMtMTI3LjIgMC0yNDIuNCA1Mi44LTMyMS42IDEzOS4ybDEzNi44IDI0MEMzNTMuNiAzNzUuMiA0MjUuNiAzMjAgNTA5LjYgMzIweiIvPjxwYXRoIGZpbGw9IiMwMEQxOUMiIGQ9Ik01NDggNzA0Yy0xMiAyLjQtMjYuNCA0LjgtMzguNCA0LjgtNjkuNiAwLTEyOS42LTM2LTE2My4yLTg4LjhMMTQ0LjggMjY3LjJjLTQ4IDY5LjYtNzQuNCAxNTMuNi03NC40IDI0NC44IDAgMjEzLjYgMTUxLjIgMzkxLjIgMzUyLjggNDMybC05LjYtNC44TDU0OCA3MDR6Ii8+PHBhdGggZmlsbD0iI0ZDQTI1MyIgZD0iTTkzNC40IDM4Ny4ySDY1NmMyOC44IDMzLjYgNDggNzkuMiA0OCAxMjcuMiAwIDM4LjQtOS42IDcyLTI4LjggMTAzLjJsLTE5NC40IDMzNmM5LjYgMCAyMS42IDIuNCAzMS4yIDIuNCAyNDQuOCAwIDQ0MS42LTE5Ni44IDQ0MS42LTQ0MS42IDAtNDUuNi03LjItODguOC0xOS4yLTEyNy4yeiIvPjwvc3ZnPg==" parent="1" vertex="1">
          <mxGeometry x="270.55" y="-736.5" width="39" height="39" as="geometry" />
        </mxCell>
      </root>
    </mxGraphModel>
  </diagram>
</mxfile>
